Coordinates
version=1
nRows=26
nColumns=24
inDegrees=yes

Units are S.I. units (second, meters, Newtons, ...)
Angles are in degrees.

endheader
time	pelvis_tilt	pelvis_list	pelvis_rotation	pelvis_tx	pelvis_ty	pelvis_tz	hip_flexion_r	hip_adduction_r	hip_rotation_r	knee_angle_r	ankle_angle_r	subtalar_angle_r	mtp_angle_r	hip_flexion_l	hip_adduction_l	hip_rotation_l	knee_angle_l	ankle_angle_l	subtalar_angle_l	mtp_angle_l	lumbar_extension	lumbar_bending	lumbar_rotation
      1.13300000	     -1.48472768	     -9.11877472	     -5.46228740	     -0.05340234	      0.99267493	      0.29594111	    -14.41965725	      9.27756175	     -2.97956669	     -5.95153184	      4.89854871	     -4.02446954	      5.07420013	     24.76767864	    -11.87105134	    -11.31605044	      2.10523622	      3.75471268	     -5.67539027	    -11.80940527	    -11.14070248	     10.29050810	      7.96231375
      1.13716667	     -1.40638455	     -9.02715392	     -5.77088069	     -0.04789679	      0.99230396	      0.29644776	    -14.75169951	      9.05239575	     -2.64034049	     -6.14215064	      4.89212087	     -4.04265599	      5.13316644	     24.70554971	    -11.93698562	    -11.28493847	      1.57289251	      3.71878014	     -6.03584899	    -11.77813249	    -11.26397390	     10.01427314	      8.27691594
      1.14133333	     -1.29365942	     -8.90673010	     -6.10314611	     -0.04231280	      0.99205968	      0.29702238	    -15.11350724	      8.78470082	     -2.28225068	     -6.33780761	      4.82543499	     -4.08992645	      5.24816406	     24.58698743	    -11.98536055	    -11.32407091	      0.99298166	      3.67341026	     -6.38660100	    -11.71382844	    -11.41822353	      9.68000993	      8.68513929
      1.14550000	     -1.20675146	     -8.80276038	     -6.43444883	     -0.03678276	      0.99180321	      0.29756813	    -15.41607148	      8.53284753	     -1.92439662	     -6.59132212	      4.78969414	     -4.13297180	      5.34035517	     24.50776777	    -12.04760716	    -11.33336863	      0.35735446	      3.54027660	     -6.82735643	    -11.66664696	    -11.55320891	      9.37911282	      8.98313383
      1.14966667	     -1.09803940	     -8.69213662	     -6.76011973	     -0.03118682	      0.99162517	      0.29810294	    -15.74435733	      8.26879576	     -1.55882132	     -6.83245396	      4.73917616	     -4.16650482	      5.42963090	     24.39832855	    -12.09658797	    -11.36893213	     -0.31351075	      3.39186195	     -7.29470944	    -11.62371724	    -11.68768126	      9.06806584	      9.30152177
      1.15383333	     -0.98437782	     -8.56159862	     -7.09933983	     -0.02555893	      0.99152383	      0.29865664	    -16.05114724	      7.97627374	     -1.20740193	     -7.11214756	      4.62567069	     -4.22979680	      5.54134282	     24.26262356	    -12.12697491	    -11.44631290	     -0.98495780	      3.18097123	     -7.76630286	    -11.57121610	    -11.83046646	      8.71413993	      9.67273172
      1.15800000	     -0.91963724	     -8.43372525	     -7.42730592	     -0.01990053	      0.99138199	      0.29913545	    -16.28711183	      7.68861662	     -0.87262409	     -7.42060560	      4.48103023	     -4.25419233	      5.62883124	     24.18368386	    -12.15158883	    -11.50414610	     -1.68709742	      2.99649491	     -8.23350629	    -11.53273260	    -11.92065564	      8.38165264	      9.92458465
      1.16216667	     -0.82895552	     -8.29682992	     -7.75342283	     -0.01421838	      0.99133707	      0.29960549	    -16.53052241	      7.38636968	     -0.55460010	     -7.75632744	      4.30196422	     -4.32608393	      5.73092306	     24.05732290	    -12.15895996	    -11.60893781	     -2.36283191	      2.67016420	     -8.75486328	    -11.49174461	    -12.02603322	      8.03248618	     10.25930645
      1.16633333	     -0.59887512	     -8.13627772	     -8.06544677	     -0.00846459	      0.99157979	      0.30006585	    -16.92435569	      7.03586447	     -0.25985804	     -8.06731904	      4.09461774	     -4.40229661	      6.03236034	     23.75226971	    -12.12492226	    -11.84085566	     -3.00427535	      2.30339796	     -9.15174108	    -11.35933650	    -12.27392902	      7.62609408	     10.82100629
      1.17050000	     -0.50812165	     -7.98762643	     -8.36820444	     -0.00270417	      0.99163878	      0.30043912	    -17.13370614	      6.71914339	      0.01674414	     -8.44546817	      3.86288349	     -4.48081527	      6.36238091	     23.60029847	    -12.09772632	    -11.99334336	     -3.63949128	      1.87702446	     -9.65771362	    -11.21901252	    -12.36045996	      7.26879578	     11.14481530
      1.17466667	     -0.51383844	     -7.84110605	     -8.62522373	      0.00311834	      0.99156843	      0.30069583	    -17.21813934	      6.43002129	      0.22382171	     -8.86197088	      3.58669553	     -4.53037024	      6.46698812	     23.57264105	    -12.06142228	    -12.12634640	     -4.29130320	      1.43210824	    -10.08223807	    -11.18242284	    -12.32481302	      6.95262873	     11.20446480
      1.17883333	     -0.43362128	     -7.67928240	     -8.85333043	      0.00897371	      0.99168313	      0.30087264	    -17.38313381	      6.11647491	      0.40648038	     -9.28486727	      3.33531399	     -4.64357890	      6.66105711	     23.42766709	    -11.97811494	    -12.26916742	     -4.88464552	      0.90166297	    -10.63042248	    -11.11294203	    -12.36417585	      6.59996399	     11.51871573
      1.18300000	     -0.25922498	     -7.51612195	     -9.08458010	      0.01479793	      0.99202217	      0.30098224	    -17.61120549	      5.77129536	      0.54481587	     -9.75067817	      2.97109308	     -4.65094259	      7.18285522	     23.14649534	    -11.87775284	    -12.46091529	     -5.41294093	      0.36624801	    -11.06960105	    -10.91557689	    -12.54284703	      6.22793047	     11.91955146
      1.18716667	     -0.26634377	     -7.33248789	     -9.25361308	      0.02077530	      0.99208184	      0.30101610	    -17.63512435	      5.46635278	      0.63270540	    -10.24645331	      2.61450024	     -4.79894780	      7.38941922	     23.09759928	    -11.75678722	    -12.63121137	     -5.98250893	     -0.15495088	    -11.44660810	    -10.84437752	    -12.45776012	      5.88368543	     11.94964388
      1.19133333	     -0.24029929	     -7.15492383	     -9.41308321	      0.02670298	      0.99225994	      0.30092596	    -17.64766617	      5.15477595	      0.67172098	    -10.81396797	      2.19945657	     -4.89796210	      7.71885711	     22.98511707	    -11.61876391	    -12.75316632	     -6.48219721	     -0.71685908	    -11.87213551	    -10.73157105	    -12.43902274	      5.54707818	     12.14647107
      1.19550000	     -0.24299625	     -6.98820387	     -9.48075304	      0.03276520	      0.99239984	      0.30069812	    -17.64493350	      4.88609807	      0.62859310	    -11.34270585	      1.67101378	     -4.96307147	      7.85907482	     22.94333185	    -11.47404653	    -12.90265353	     -7.03051851	     -1.22064247	    -12.06890481	    -10.68787868	    -12.35340394	      5.25165778	     12.18078115
      1.19966667	     -0.14408311	     -6.78668408	     -9.59176015	      0.03872766	      0.99278999	      0.30040256	    -17.66973489	      4.53916078	      0.57119352	    -12.00517497	      1.23331197	     -5.01767678	      8.52211884	     22.71748376	    -11.26495403	    -13.01374665	     -7.43160223	     -1.84623279	    -12.58777418	    -10.47178718	    -12.40699231	      4.90082328	     12.40796981
      1.20383333	     -0.11333727	     -6.54372294	     -9.54319110	      0.04497681	      0.99302593	      0.29983280	    -17.64252477	      4.19866184	      0.28536858	    -12.61174319	      0.63931367	     -5.13533144	     16.15257801	     22.63164470	    -10.97315524	    -13.11020055	     -7.91275351	     -2.31193524	    -12.84341613	     -7.93765441	    -12.31347429	      4.54782314	     12.20356285
      1.20800000	     -0.14146344	     -6.34986554	     -9.54435369	      0.05111980	      0.99325974	      0.29943121	    -17.51670615	      3.93208129	      0.16142638	    -13.29897955	      0.02107870	     -5.35185273	     16.16416188	     22.59626526	    -10.77761856	    -13.25663103	     -8.39912979	     -2.73832706	    -12.92546733	     -7.93019908	    -12.19079936	      4.23653790	     12.24869409
      1.21216667	     -0.16087706	     -6.13358940	     -9.54114457	      0.05729975	      0.99355807	      0.29897395	    -17.35729930	      3.63816833	      0.00063177	    -14.05721561	     -0.60886036	     -5.56217628	     16.19313997	     22.52945105	    -10.54980744	    -13.40744129	     -8.84726143	     -3.12939964	    -13.04695803	     -7.91907979	    -12.06207585	      3.90648699	     12.25876691
      1.21633333	     -0.16665911	     -5.89022923	     -9.52253919	      0.06350050	      0.99391763	      0.29842256	    -17.16386106	      3.31249489	     -0.21028273	    -14.89596533	     -1.22505192	     -5.77939040	     16.28409849	     22.42613067	    -10.27579730	    -13.53443152	     -9.24353875	     -3.52515626	    -13.22641245	     -7.88930483	    -11.94417197	      3.56130834	     12.24105291
      1.22050000	     -0.15724925	     -5.66010633	     -9.43329751	      0.06976896	      0.99430441	      0.29776951	    -16.97996171	      3.01701383	     -0.49295155	    -15.73937544	     -1.94576069	     -5.98724920	     16.33247128	     22.33266682	    -10.00169387	    -13.66859650	     -9.68605849	     -3.78710172	    -13.21667173	     -7.87471605	    -11.83126053	      3.22779907	     12.19721118
      1.22466667	     -0.16009246	     -5.37275389	     -9.35529630	      0.07605362	      0.99472548	      0.29706135	    -16.72331153	      2.65750404	     -0.78648326	    -16.67929750	     -2.63857222	     -6.24868340	     16.51721662	     22.21046632	     -9.65544927	    -13.76060468	    -10.03742405	     -4.11662436	    -13.32417109	     -7.82920935	    -11.70592332	      2.85561778	     12.04978207
      1.22883333	     -0.14601511	     -5.09989606	     -9.22662473	      0.08238305	      0.99516986	      0.29630663	    -16.47148866	      2.32583733	     -1.12477542	    -17.63923259	     -3.42090311	     -6.51333610	     16.59899942	     22.09102184	     -9.32022578	    -13.86661329	    -10.44105463	     -4.25888253	    -13.23876269	     -7.80876248	    -11.59499900	      2.47774825	     11.97494386
      1.23300000	     -0.13639548	     -4.80548418	     -9.10531869	      0.08871829	      0.99564373	      0.29554216	    -16.16653184	      1.96900457	     -1.46894295	    -18.68100284	     -4.20019251	     -6.83449172	     16.69776218	     21.95288518	     -8.96285661	    -13.97784395	    -10.80396691	     -4.39895367	    -13.15810185	     -7.78727339	    -11.47248220	      2.09006522	     11.84755927
      1.23716667	     -0.11854437	     -4.49769131	     -8.97094375	      0.09505455	      0.99614372	      0.29473808	    -15.83009235	      1.59852650	     -1.83400812	    -19.78856719	     -4.98648134	     -7.18294334	     16.80337714	     21.79676052	     -8.58573469	    -14.08544574	    -11.15267076	     -4.48634315	    -13.05387083	     -7.76598746	    -11.35552284	      1.68964396	     11.70110487
